# xmcd
#
# Track frame offsets:
#	150
#	17281
#	29256
#	46711
#	64236
#	88278
#	100875
#	113472
#	131640
#	151361
#	165010
#	173839
#
# Disc length: 2480 seconds
#
# Revision: 1
# Processed by: cddbd v1.5.1PL2 Copyright (c) Steve Scherf et al.
# Submitted via: audiograbber 1.83.01
#
DISCID=8409ae0c
DTITLE=Gashouse Dave - Psyche Blues
DYEAR=2005
DGENRE=Blues
TTITLE0=I Hear My Subway Comin'
TTITLE1=It's A Drag Always Being Right
TTITLE2=Blackstar Blues
TTITLE3=Valentino's L'Amour Du Fumé
TTITLE4=Outlasting Our Promises
TTITLE5=Sunbath
TTITLE6=White Sugar Blues
TTITLE7=Dry Point Sketch In Blue
TTITLE8=Taurus Unclaimed
TTITLE9=Crowfoot Meridian
TTITLE10=Three
TTITLE11=Sunbath (With Arrangements)
EXTD=
EXTT0=
EXTT1=
EXTT2=
EXTT3=
EXTT4=
EXTT5=
EXTT6=
EXTT7=
EXTT8=
EXTT9=
EXTT10=
EXTT11=
PLAYORDER=
